<svg width="36" height="36" viewBox="0 0 36 36" fill="none" xmlns="http://www.w3.org/2000/svg">
<path d="M33.3 26.4502L21.0024 5.09353C20.6951 4.5703 20.2564 4.13646 19.7297 3.83502C19.2031 3.53358 18.6068 3.375 18 3.375C17.3932 3.375 16.797 3.53358 16.2703 3.83502C15.7437 4.13646 15.305 4.5703 14.9977 5.09353L2.70004 26.4502C2.40436 26.9563 2.24854 27.5319 2.24854 28.1181C2.24854 28.7042 2.40436 29.2798 2.70004 29.7859C3.00341 30.3123 3.44138 30.7485 3.96899 31.0497C4.4966 31.351 5.09486 31.5064 5.70239 31.5001H30.2977C30.9048 31.5059 31.5024 31.3502 32.0295 31.049C32.5566 30.7478 32.9941 30.3118 33.2972 29.7859C33.5933 29.28 33.7497 28.7046 33.7502 28.1184C33.7506 27.5323 33.5953 26.9566 33.3 26.4502ZM16.875 14.6251C16.875 14.3267 16.9936 14.0406 17.2046 13.8296C17.4155 13.6186 17.7017 13.5001 18 13.5001C18.2984 13.5001 18.5846 13.6186 18.7955 13.8296C19.0065 14.0406 19.125 14.3267 19.125 14.6251V20.2501C19.125 20.5485 19.0065 20.8346 18.7955 21.0456C18.5846 21.2566 18.2984 21.3751 18 21.3751C17.7017 21.3751 17.4155 21.2566 17.2046 21.0456C16.9936 20.8346 16.875 20.5485 16.875 20.2501V14.6251ZM18 27.0001C17.6663 27.0001 17.34 26.9011 17.0625 26.7157C16.785 26.5303 16.5687 26.2667 16.441 25.9584C16.3133 25.65 16.2799 25.3107 16.345 24.9834C16.4101 24.656 16.5708 24.3554 16.8068 24.1194C17.0428 23.8833 17.3435 23.7226 17.6708 23.6575C17.9982 23.5924 18.3375 23.6258 18.6458 23.7535C18.9542 23.8813 19.2177 24.0976 19.4032 24.3751C19.5886 24.6526 19.6875 24.9788 19.6875 25.3126C19.6875 25.7601 19.5098 26.1894 19.1933 26.5058C18.8768 26.8223 18.4476 27.0001 18 27.0001Z" fill="#B22334"/>
</svg>
