<svg width="30" height="22" viewBox="0 0 30 22" fill="none" xmlns="http://www.w3.org/2000/svg">
<path d="M7.5 16.4782C8.56818 16.4782 9.60795 16.5983 10.6193 16.8387C11.6307 17.079 12.6364 17.4394 13.6364 17.92V4.39418C12.7045 3.84491 11.7159 3.43296 10.6705 3.15832C9.625 2.88368 8.56818 2.74637 7.5 2.74637C6.68182 2.74637 5.86932 2.82647 5.0625 2.98667C4.25568 3.14688 3.47727 3.38718 2.72727 3.70759V17.3021C3.52273 17.0275 4.3125 16.8215 5.09659 16.6842C5.88068 16.5469 6.68182 16.4782 7.5 16.4782ZM16.3636 17.92C17.3636 17.4394 18.3693 17.079 19.3807 16.8387C20.392 16.5983 21.4318 16.4782 22.5 16.4782C23.3182 16.4782 24.1193 16.5469 24.9034 16.6842C25.6875 16.8215 26.4773 17.0275 27.2727 17.3021V3.70759C26.5227 3.38718 25.7443 3.14688 24.9375 2.98667C24.1307 2.82647 23.3182 2.74637 22.5 2.74637C21.4318 2.74637 20.375 2.88368 19.3295 3.15832C18.2841 3.43296 17.2955 3.84491 16.3636 4.39418V17.92ZM14.0966 21.1298C13.8125 21.0497 13.5455 20.941 13.2955 20.8037C12.4091 20.2773 11.4773 19.8825 10.5 19.6193C9.52273 19.3562 8.52273 19.2246 7.5 19.2246C6.54545 19.2246 5.60795 19.3504 4.6875 19.6022C3.76705 19.8539 2.88636 20.2087 2.04545 20.6664C1.56818 20.9181 1.10795 20.9067 0.664773 20.6321C0.221591 20.3574 0 19.9569 0 19.4305V2.88368C0 2.63193 0.0625 2.39163 0.1875 2.16276C0.3125 1.9339 0.5 1.76225 0.75 1.64782C1.79545 1.09855 2.88636 0.686591 4.02273 0.411955C5.15909 0.137318 6.31818 0 7.5 0C8.81818 0 10.108 0.171648 11.3693 0.514943C12.6307 0.858239 13.8409 1.37318 15 2.05977C16.1591 1.37318 17.3693 0.858239 18.6307 0.514943C19.892 0.171648 21.1818 0 22.5 0C23.6818 0 24.8409 0.137318 25.9773 0.411955C27.1136 0.686591 28.2045 1.09855 29.25 1.64782C29.5 1.76225 29.6875 1.9339 29.8125 2.16276C29.9375 2.39163 30 2.63193 30 2.88368V19.4305C30 19.9569 29.7784 20.3574 29.3352 20.6321C28.892 20.9067 28.4318 20.9181 27.9545 20.6664C27.1136 20.2087 26.233 19.8539 25.3125 19.6022C24.392 19.3504 23.4545 19.2246 22.5 19.2246C21.4773 19.2246 20.4773 19.3562 19.5 19.6193C18.5227 19.8825 17.5909 20.2773 16.7045 20.8037C16.4545 20.941 16.1875 21.0497 15.9034 21.1298C15.6193 21.2099 15.3182 21.25 15 21.25C14.6818 21.25 14.3807 21.2099 14.0966 21.1298ZM17.7273 6.55695C17.7273 6.35097 17.8011 6.13927 17.9489 5.92185C18.0966 5.70443 18.2614 5.56139 18.4432 5.49273C19.1023 5.26387 19.7614 5.09222 20.4205 4.97779C21.0795 4.86335 21.7727 4.80614 22.5 4.80614C22.9545 4.80614 23.4034 4.83475 23.8466 4.89196C24.2898 4.94918 24.7273 5.02356 25.1591 5.11511C25.3636 5.16088 25.5398 5.27531 25.6875 5.4584C25.8352 5.64149 25.9091 5.84747 25.9091 6.07633C25.9091 6.4654 25.7841 6.75148 25.5341 6.93457C25.2841 7.11766 24.9659 7.16344 24.5795 7.07189C24.2614 7.00323 23.9261 6.95174 23.5739 6.91741C23.2216 6.88308 22.8636 6.86591 22.5 6.86591C21.9091 6.86591 21.3295 6.92313 20.7614 7.03756C20.1932 7.15199 19.6477 7.30075 19.125 7.48384C18.7159 7.64405 18.3807 7.63261 18.1193 7.44952C17.858 7.26642 17.7273 6.9689 17.7273 6.55695ZM17.7273 14.1095C17.7273 13.9035 17.8011 13.6918 17.9489 13.4744C18.0966 13.2569 18.2614 13.1139 18.4432 13.0452C19.1023 12.8164 19.7614 12.6447 20.4205 12.5303C21.0795 12.4159 21.7727 12.3586 22.5 12.3586C22.9545 12.3586 23.4034 12.3873 23.8466 12.4445C24.2898 12.5017 24.7273 12.5761 25.1591 12.6676C25.3636 12.7134 25.5398 12.8278 25.6875 13.0109C25.8352 13.194 25.9091 13.4 25.9091 13.6288C25.9091 14.0179 25.7841 14.304 25.5341 14.4871C25.2841 14.6702 24.9659 14.7159 24.5795 14.6244C24.2614 14.5557 23.9261 14.5042 23.5739 14.4699C23.2216 14.4356 22.8636 14.4184 22.5 14.4184C21.9091 14.4184 21.3295 14.4699 20.7614 14.5729C20.1932 14.6759 19.6477 14.8189 19.125 15.002C18.7159 15.1622 18.3807 15.1565 18.1193 14.9849C17.858 14.8132 17.7273 14.5214 17.7273 14.1095ZM17.7273 10.3332C17.7273 10.1272 17.8011 9.91552 17.9489 9.6981C18.0966 9.48068 18.2614 9.33764 18.4432 9.26898C19.1023 9.04012 19.7614 8.86847 20.4205 8.75404C21.0795 8.63961 21.7727 8.58239 22.5 8.58239C22.9545 8.58239 23.4034 8.611 23.8466 8.66821C24.2898 8.72543 24.7273 8.79981 25.1591 8.89136C25.3636 8.93713 25.5398 9.05156 25.6875 9.23465C25.8352 9.41774 25.9091 9.62372 25.9091 9.85258C25.9091 10.2417 25.7841 10.5277 25.5341 10.7108C25.2841 10.8939 24.9659 10.9397 24.5795 10.8481C24.2614 10.7795 23.9261 10.728 23.5739 10.6937C23.2216 10.6593 22.8636 10.6422 22.5 10.6422C21.9091 10.6422 21.3295 10.6994 20.7614 10.8138C20.1932 10.9282 19.6477 11.077 19.125 11.2601C18.7159 11.4203 18.3807 11.4089 18.1193 11.2258C17.858 11.0427 17.7273 10.7452 17.7273 10.3332Z" fill="#007EA7"/>
</svg>
