<svg width="50" height="50" viewBox="0 0 50 50" fill="none" xmlns="http://www.w3.org/2000/svg">
<path d="M27.2727 36.1167C28.9394 35.3157 30.6155 34.7149 32.3011 34.3144C33.9867 33.9139 35.7197 33.7137 37.5 33.7137C38.8636 33.7137 40.1989 33.8281 41.5057 34.0569C42.8125 34.2858 44.1288 34.6291 45.4545 35.0868V12.4293C44.2045 11.8953 42.9072 11.4948 41.5625 11.2278C40.2178 10.9608 38.8636 10.8273 37.5 10.8273C35.7197 10.8273 33.9583 11.0561 32.2159 11.5139C30.4735 11.9716 28.8258 12.6582 27.2727 13.5736V36.1167ZM23.4943 41.4664C23.0208 41.3329 22.5758 41.1517 22.1591 40.9229C20.6818 40.0455 19.1288 39.3876 17.5 38.9489C15.8712 38.5103 14.2045 38.2909 12.5 38.2909C10.9091 38.2909 9.34659 38.5007 7.8125 38.9203C6.27841 39.3399 4.81061 39.9311 3.40909 40.694C2.61364 41.1136 1.84659 41.0945 1.10795 40.6368C0.369318 40.1791 0 39.5115 0 38.6342V11.0561C0 10.6366 0.104167 10.236 0.3125 9.8546C0.520833 9.47316 0.833333 9.18708 1.25 8.99637C3.0303 8.11905 4.85795 7.442 6.73295 6.9652C8.60795 6.4884 10.5303 6.25 12.5 6.25C14.697 6.25 16.8466 6.53608 18.9489 7.10824C21.0511 7.6804 23.0682 8.53864 25 9.68296C26.9318 8.53864 28.9489 7.6804 31.0511 7.10824C33.1534 6.53608 35.303 6.25 37.5 6.25C39.4697 6.25 41.392 6.4884 43.267 6.9652C45.142 7.442 46.9697 8.11905 48.75 8.99637C49.1667 9.18708 49.4792 9.47316 49.6875 9.8546C49.8958 10.236 50 10.6366 50 11.0561V38.6342C50 39.5115 49.6307 40.1791 48.892 40.6368C48.1534 41.0945 47.3864 41.1136 46.5909 40.694C45.1894 39.9311 43.7216 39.3399 42.1875 38.9203C40.6534 38.5007 39.0909 38.2909 37.5 38.2909C35.7955 38.2909 34.1288 38.5103 32.5 38.9489C30.8712 39.3876 29.3182 40.0455 27.8409 40.9229C27.4242 41.1517 26.9792 41.3329 26.5057 41.4664C26.0322 41.5999 25.5303 41.6667 25 41.6667C24.4697 41.6667 23.9678 41.5999 23.4943 41.4664ZM29.5455 17.1782C29.5455 16.8349 29.6686 16.4821 29.9148 16.1198C30.161 15.7574 30.4356 15.519 30.7386 15.4046C31.8371 15.0231 32.9356 14.737 34.0341 14.5463C35.1326 14.3556 36.2879 14.2602 37.5 14.2602C38.2576 14.2602 39.0057 14.3079 39.7443 14.4033C40.483 14.4986 41.2121 14.6226 41.9318 14.7752C42.2727 14.8515 42.5663 15.0422 42.8125 15.3473C43.0587 15.6525 43.1818 15.9958 43.1818 16.3772C43.1818 17.0257 42.9735 17.5025 42.5568 17.8076C42.1402 18.1128 41.6098 18.1891 40.9659 18.0365C40.4356 17.9221 39.8769 17.8362 39.2898 17.779C38.7027 17.7218 38.1061 17.6932 37.5 17.6932C36.5152 17.6932 35.5492 17.7885 34.6023 17.9793C33.6553 18.17 32.7462 18.4179 31.875 18.7231C31.1932 18.9901 30.6345 18.971 30.1989 18.6659C29.7633 18.3607 29.5455 17.8648 29.5455 17.1782ZM29.5455 29.7658C29.5455 29.4225 29.6686 29.0696 29.9148 28.7073C30.161 28.3449 30.4356 28.1065 30.7386 27.9921C31.8371 27.6106 32.9356 27.3245 34.0341 27.1338C35.1326 26.9431 36.2879 26.8477 37.5 26.8477C38.2576 26.8477 39.0057 26.8954 39.7443 26.9908C40.483 27.0861 41.2121 27.2101 41.9318 27.3627C42.2727 27.439 42.5663 27.6297 42.8125 27.9348C43.0587 28.24 43.1818 28.5833 43.1818 28.9647C43.1818 29.6132 42.9735 30.09 42.5568 30.3951C42.1402 30.7003 41.6098 30.7766 40.9659 30.624C40.4356 30.5096 39.8769 30.4237 39.2898 30.3665C38.7027 30.3093 38.1061 30.2807 37.5 30.2807C36.5152 30.2807 35.5492 30.3665 34.6023 30.5382C33.6553 30.7098 32.7462 30.9482 31.875 31.2534C31.1932 31.5204 30.6345 31.5108 30.1989 31.2248C29.7633 30.9387 29.5455 30.4523 29.5455 29.7658ZM29.5455 23.472C29.5455 23.1287 29.6686 22.7759 29.9148 22.4135C30.161 22.0511 30.4356 21.8127 30.7386 21.6983C31.8371 21.3169 32.9356 21.0308 34.0341 20.8401C35.1326 20.6493 36.2879 20.554 37.5 20.554C38.2576 20.554 39.0057 20.6017 39.7443 20.697C40.483 20.7924 41.2121 20.9164 41.9318 21.0689C42.2727 21.1452 42.5663 21.3359 42.8125 21.6411C43.0587 21.9462 43.1818 22.2895 43.1818 22.671C43.1818 23.3194 42.9735 23.7962 42.5568 24.1014C42.1402 24.4065 41.6098 24.4828 40.9659 24.3302C40.4356 24.2158 39.8769 24.13 39.2898 24.0728C38.7027 24.0155 38.1061 23.9869 37.5 23.9869C36.5152 23.9869 35.5492 24.0823 34.6023 24.273C33.6553 24.4637 32.7462 24.7117 31.875 25.0168C31.1932 25.2838 30.6345 25.2648 30.1989 24.9596C29.7633 24.6545 29.5455 24.1586 29.5455 23.472Z" fill="#007EA7"/>
</svg>
