<svg width="11" height="13" viewBox="0 0 11 13" fill="none" xmlns="http://www.w3.org/2000/svg">
<path d="M10.2812 2.1875H8.3125V1.53125C8.3125 1.12514 8.15117 0.735658 7.86401 0.448493C7.57684 0.161328 7.18736 0 6.78125 0H4.15625C3.75014 0 3.36066 0.161328 3.07349 0.448493C2.78633 0.735658 2.625 1.12514 2.625 1.53125V2.1875H0.65625C0.482202 2.1875 0.315282 2.25664 0.192211 2.37971C0.0691404 2.50278 0 2.6697 0 2.84375C0 3.0178 0.0691404 3.18472 0.192211 3.30779C0.315282 3.43086 0.482202 3.5 0.65625 3.5H0.875V10.9375C0.875 11.2276 0.990234 11.5058 1.19535 11.7109C1.40047 11.916 1.67867 12.0312 1.96875 12.0312H8.96875C9.25883 12.0312 9.53703 11.916 9.74215 11.7109C9.94727 11.5058 10.0625 11.2276 10.0625 10.9375V3.5H10.2812C10.4553 3.5 10.6222 3.43086 10.7453 3.30779C10.8684 3.18472 10.9375 3.0178 10.9375 2.84375C10.9375 2.6697 10.8684 2.50278 10.7453 2.37971C10.6222 2.25664 10.4553 2.1875 10.2812 2.1875ZM3.9375 1.53125C3.9375 1.47323 3.96055 1.41759 4.00157 1.37657C4.04259 1.33555 4.09823 1.3125 4.15625 1.3125H6.78125C6.83927 1.3125 6.89491 1.33555 6.93593 1.37657C6.97695 1.41759 7 1.47323 7 1.53125V2.1875H3.9375V1.53125ZM8.75 10.7188H2.1875V3.5H8.75V10.7188ZM4.8125 5.25V8.75C4.8125 8.92405 4.74336 9.09097 4.62029 9.21404C4.49722 9.33711 4.3303 9.40625 4.15625 9.40625C3.9822 9.40625 3.81528 9.33711 3.69221 9.21404C3.56914 9.09097 3.5 8.92405 3.5 8.75V5.25C3.5 5.07595 3.56914 4.90903 3.69221 4.78596C3.81528 4.66289 3.9822 4.59375 4.15625 4.59375C4.3303 4.59375 4.49722 4.66289 4.62029 4.78596C4.74336 4.90903 4.8125 5.07595 4.8125 5.25ZM7.4375 5.25V8.75C7.4375 8.92405 7.36836 9.09097 7.24529 9.21404C7.12222 9.33711 6.9553 9.40625 6.78125 9.40625C6.6072 9.40625 6.44028 9.33711 6.31721 9.21404C6.19414 9.09097 6.125 8.92405 6.125 8.75V5.25C6.125 5.07595 6.19414 4.90903 6.31721 4.78596C6.44028 4.66289 6.6072 4.59375 6.78125 4.59375C6.9553 4.59375 7.12222 4.66289 7.24529 4.78596C7.36836 4.90903 7.4375 5.07595 7.4375 5.25Z" fill="#EF4444"/>
</svg>
