<svg width="67" height="67" viewBox="0 0 67 67" fill="none" xmlns="http://www.w3.org/2000/svg">
<path d="M67 50.25C67 52.2244 66.2157 54.1179 64.8196 55.514C63.4235 56.9101 61.5299 57.6944 59.5556 57.6944H7.44444C5.47006 57.6944 3.57653 56.9101 2.18043 55.514C0.784323 54.1179 0 52.2244 0 50.25V16.75C0 14.7756 0.784323 12.8821 2.18043 11.486C3.57653 10.0899 5.47006 9.30556 7.44444 9.30556H59.5556C61.5299 9.30556 63.4235 10.0899 64.8196 11.486C66.2157 12.8821 67 14.7756 67 16.75V50.25Z" fill="#DE2910"/>
<path d="M20.7253 16.7072L22.0951 17.3697L23.1913 16.3164L22.9847 17.8239L24.3247 18.5422L22.8284 18.8102L22.5604 20.3066L21.842 18.9666L20.3345 19.1732L21.3879 18.077L20.7253 16.7072ZM29.4074 22.1807L28.7449 23.5486L29.7983 24.6467L28.2926 24.4382L27.5742 25.7801L27.3062 24.2819L25.808 24.0139L27.1499 23.2955L26.9414 21.7899L28.0395 22.8433L29.4074 22.1807ZM27.6263 29.2139L28.1251 30.6506L29.6456 30.6823L28.4341 31.5998L28.8751 33.0571L27.6263 32.1879L26.3775 33.0571L26.8168 31.5998L25.6052 30.6823L27.1257 30.6506L27.6263 29.2139ZM20.7253 35.3183L22.0951 35.9809L23.1913 34.9275L22.9847 36.435L24.3247 37.1534L22.8284 37.4214L22.5604 38.9177L21.842 37.5777L20.3345 37.7843L21.3879 36.6881L20.7253 35.3183ZM13.0278 20.381L14.7568 25.3521L20.0163 25.46L15.8232 28.6388L17.3474 33.6749L13.0278 30.6692L8.70814 33.6749L10.2324 28.6388L6.03931 25.46L11.2988 25.3521L13.0278 20.381Z" fill="#FFDE02"/>
</svg>
