<svg width="50" height="40" viewBox="0 0 50 40" fill="none" xmlns="http://www.w3.org/2000/svg">
<path d="M45.2153 29.1691V15.6447L25.9569 25.6734C25.2392 26.0554 24.4817 26.2464 23.6842 26.2464C22.8868 26.2464 22.1292 26.0554 21.4115 25.6734L1.19617 15.1289C0.757576 14.8997 0.448565 14.6132 0.269139 14.2693C0.0897129 13.9255 0 13.5435 0 13.1232C0 12.703 0.0897129 12.3209 0.269139 11.9771C0.448565 11.6332 0.757576 11.3467 1.19617 11.1175L21.4115 0.573066C21.7703 0.382044 22.1392 0.238777 22.5179 0.143266C22.8967 0.0477555 23.2855 0 23.6842 0C24.0829 0 24.4717 0.0477555 24.8505 0.143266C25.2293 0.238777 25.5981 0.382044 25.9569 0.573066L48.744 12.4928C49.1427 12.6839 49.4518 12.9608 49.6711 13.3238C49.8903 13.6867 50 14.0783 50 14.4986V29.1691C50 29.8185 49.7707 30.3629 49.3122 30.8023C48.8537 31.2416 48.2855 31.4613 47.6077 31.4613C46.9298 31.4613 46.3616 31.2416 45.9031 30.8023C45.4446 30.3629 45.2153 29.8185 45.2153 29.1691ZM21.4115 39.4269L9.44976 33.2378C8.65231 32.8176 8.03429 32.2445 7.59569 31.5186C7.1571 30.7927 6.9378 30.0096 6.9378 29.1691V20.4585L21.4115 27.9656C22.1292 28.3477 22.8868 28.5387 23.6842 28.5387C24.4817 28.5387 25.2392 28.3477 25.9569 27.9656L40.4306 20.4585V29.1691C40.4306 30.0096 40.2113 30.7927 39.7727 31.5186C39.3341 32.2445 38.7161 32.8176 37.9187 33.2378L25.9569 39.4269C25.5981 39.618 25.2293 39.7612 24.8505 39.8567C24.4717 39.9522 24.0829 40 23.6842 40C23.2855 40 22.8967 39.9522 22.5179 39.8567C22.1392 39.7612 21.7703 39.618 21.4115 39.4269Z" fill="#007EA7"/>
</svg>
