<svg width="25" height="25" viewBox="0 0 25 25" fill="none" xmlns="http://www.w3.org/2000/svg">
<path d="M3.125 22.1429H7.8125V15C7.8125 14.5952 7.96224 14.256 8.26172 13.9821C8.5612 13.7083 8.93229 13.5714 9.375 13.5714H15.625C16.0677 13.5714 16.4388 13.7083 16.7383 13.9821C17.0378 14.256 17.1875 14.5952 17.1875 15V22.1429H21.875V9.28572L12.5 2.85714L3.125 9.28572V22.1429ZM0 22.1429V9.28572C0 8.83333 0.110677 8.40476 0.332031 8C0.553385 7.59524 0.859375 7.26191 1.25 7L10.625 0.571429C11.1719 0.190476 11.7969 0 12.5 0C13.2031 0 13.8281 0.190476 14.375 0.571429L23.75 7C24.1406 7.26191 24.4466 7.59524 24.668 8C24.8893 8.40476 25 8.83333 25 9.28572V22.1429C25 22.9286 24.694 23.6012 24.082 24.1607C23.4701 24.7202 22.7344 25 21.875 25H15.625C15.1823 25 14.8112 24.8631 14.5117 24.5893C14.2122 24.3155 14.0625 23.9762 14.0625 23.5714V16.4286H10.9375V23.5714C10.9375 23.9762 10.7878 24.3155 10.4883 24.5893C10.1888 24.8631 9.81771 25 9.375 25H3.125C2.26562 25 1.52995 24.7202 0.917969 24.1607C0.30599 23.6012 0 22.9286 0 22.1429Z" fill="#007EA7"/>
</svg>
