<svg width="14" height="12" viewBox="0 0 14 12" fill="none" xmlns="http://www.w3.org/2000/svg">
<path d="M7.75 3.75C7.75 3.55222 7.80865 3.35888 7.91853 3.19443C8.02841 3.02998 8.18459 2.90181 8.36732 2.82612C8.55004 2.75043 8.75111 2.73063 8.94509 2.76921C9.13907 2.8078 9.31725 2.90304 9.45711 3.04289C9.59696 3.18275 9.6922 3.36093 9.73079 3.55491C9.76937 3.74889 9.74957 3.94996 9.67388 4.13268C9.59819 4.31541 9.47002 4.47159 9.30557 4.58147C9.14112 4.69135 8.94778 4.75 8.75 4.75C8.48478 4.75 8.23043 4.64464 8.04289 4.45711C7.85536 4.26957 7.75 4.01522 7.75 3.75ZM13.5 1.25V10.25C13.5 10.5815 13.3683 10.8995 13.1339 11.1339C12.8995 11.3683 12.5815 11.5 12.25 11.5H1.25C0.918479 11.5 0.600537 11.3683 0.366117 11.1339C0.131696 10.8995 0 10.5815 0 10.25V1.25C0 0.918479 0.131696 0.600537 0.366117 0.366117C0.600537 0.131696 0.918479 0 1.25 0H12.25C12.5815 0 12.8995 0.131696 13.1339 0.366117C13.3683 0.600537 13.5 0.918479 13.5 1.25ZM1.5 1.5V6.4825L3.61625 4.36625C3.85066 4.13191 4.16854 4.00027 4.5 4.00027C4.83146 4.00027 5.14934 4.13191 5.38375 4.36625L7.95687 6.9375L9.03063 5.86438C9.26503 5.63004 9.58292 5.49839 9.91438 5.49839C10.2458 5.49839 10.5637 5.63004 10.7981 5.86438L12 7.06812V1.5H1.5ZM1.5 10H8.89625L4.5 5.60375L1.5 8.60375V10ZM12 10V9.1875L9.91438 7.10188L9.0175 8L11.0175 10H12Z" fill="#007EA7"/>
</svg>
