<svg width="32" height="23" viewBox="0 0 32 23" fill="none" xmlns="http://www.w3.org/2000/svg">
<path d="M31.0104 11.5008C31.0178 13.9909 30.2095 16.4148 28.7092 18.4021C28.4673 18.7119 28.1134 18.9144 27.7237 18.966C27.334 19.0176 26.9397 18.9142 26.6255 18.6779C26.3113 18.4417 26.1024 18.0916 26.0437 17.7029C25.985 17.3142 26.0812 16.918 26.3117 16.5996C27.1195 15.522 27.6596 14.2679 27.8877 12.9406C28.1157 11.6133 28.0251 10.2508 27.6234 8.96543C27.2216 7.68003 26.5201 6.50848 25.5768 5.54733C24.6335 4.58618 23.4753 3.86293 22.1976 3.43718C20.9199 3.01143 19.5594 2.89536 18.2281 3.09854C16.8967 3.30172 15.6327 3.81834 14.5402 4.60581C13.4477 5.39329 12.558 6.42909 11.9443 7.62787C11.3306 8.82665 11.0105 10.1541 11.0104 11.5008C11.0104 11.8987 10.8524 12.2802 10.5711 12.5615C10.2898 12.8428 9.90826 13.0008 9.51044 13.0008C9.11262 13.0008 8.73108 12.8428 8.44978 12.5615C8.16848 12.2802 8.01044 11.8987 8.01044 11.5008C8.00972 10.66 8.10152 9.8216 8.28419 9.00083C6.8255 9.03084 5.43847 9.63907 4.42824 10.6917C3.418 11.7444 2.86731 13.1553 2.89731 14.614C2.92732 16.0726 3.53555 17.4597 4.58822 18.4699C5.64088 19.4801 7.05175 20.0308 8.51044 20.0008H11.5104C11.9083 20.0008 12.2898 20.1589 12.5711 20.4402C12.8524 20.7215 13.0104 21.103 13.0104 21.5008C13.0104 21.8987 12.8524 22.2802 12.5711 22.5615C12.2898 22.8428 11.9083 23.0008 11.5104 23.0008H8.51044C7.35643 23.0023 6.21423 22.7687 5.15343 22.3143C4.09262 21.86 3.13545 21.1944 2.34024 20.3581C1.54503 19.5218 0.928433 18.5324 0.528034 17.45C0.127635 16.3677 -0.0481816 15.2152 0.0112986 14.0627C0.0707789 12.9103 0.364311 11.782 0.874004 10.7466C1.3837 9.71127 2.09888 8.79056 2.97596 8.04058C3.85304 7.29061 4.87365 6.72708 5.97559 6.38435C7.07752 6.04163 8.23771 5.92687 9.38544 6.04708C10.5997 3.79252 12.5316 2.00771 14.8752 0.975551C17.2187 -0.0566026 19.8396 -0.277049 22.3226 0.349155C24.8056 0.975358 27.0086 2.41238 28.5824 4.43246C30.1561 6.45254 31.0106 8.94009 31.0104 11.5008ZM19.5717 10.4396C19.4323 10.2997 19.2667 10.1888 19.0844 10.1131C18.9021 10.0374 18.7066 9.9984 18.5092 9.9984C18.3118 9.9984 18.1163 10.0374 17.934 10.1131C17.7516 10.1888 17.586 10.2997 17.4467 10.4396L13.4467 14.4396C13.3072 14.5791 13.1965 14.7448 13.121 14.9271C13.0455 15.1094 13.0066 15.3048 13.0066 15.5021C13.0066 15.6994 13.0455 15.8948 13.121 16.0771C13.1965 16.2594 13.3072 16.4251 13.4467 16.5646C13.5862 16.7041 13.7519 16.8148 13.9342 16.8903C14.1165 16.9658 14.3119 17.0047 14.5092 17.0047C14.7065 17.0047 14.9019 16.9658 15.0842 16.8903C15.2665 16.8148 15.4322 16.7041 15.5717 16.5646L17.0104 15.1258V21.5008C17.0104 21.8987 17.1685 22.2802 17.4498 22.5615C17.7311 22.8428 18.1126 23.0008 18.5104 23.0008C18.9083 23.0008 19.2898 22.8428 19.5711 22.5615C19.8524 22.2802 20.0104 21.8987 20.0104 21.5008V15.1258L21.4492 16.5658C21.731 16.8476 22.1132 17.0059 22.5117 17.0059C22.9102 17.0059 23.2924 16.8476 23.5742 16.5658C23.856 16.284 24.0143 15.9018 24.0143 15.5033C24.0143 15.1048 23.856 14.7226 23.5742 14.4408L19.5717 10.4396Z" fill="#007EA7"/>
</svg>
