<svg width="25" height="18" viewBox="0 0 25 18" fill="none" xmlns="http://www.w3.org/2000/svg">
<path d="M16.215 12.6172C17.2348 11.5842 17.7448 10.3299 17.7448 8.85417C17.7448 7.37847 17.2348 6.12413 16.215 5.09115C15.1952 4.05816 13.9569 3.54167 12.5 3.54167C11.0431 3.54167 9.80478 4.05816 8.78497 5.09115C7.76515 6.12413 7.25524 7.37847 7.25524 8.85417C7.25524 10.3299 7.76515 11.5842 8.78497 12.6172C9.80478 13.6502 11.0431 14.1667 12.5 14.1667C13.9569 14.1667 15.1952 13.6502 16.215 12.6172ZM10.271 11.112C9.65909 10.4922 9.35315 9.73958 9.35315 8.85417C9.35315 7.96875 9.65909 7.21615 10.271 6.59635C10.8829 5.97656 11.6259 5.66667 12.5 5.66667C13.3741 5.66667 14.1171 5.97656 14.729 6.59635C15.3409 7.21615 15.6469 7.96875 15.6469 8.85417C15.6469 9.73958 15.3409 10.4922 14.729 11.112C14.1171 11.7318 13.3741 12.0417 12.5 12.0417C11.6259 12.0417 10.8829 11.7318 10.271 11.112ZM5.37587 15.5833C3.22941 14.1667 1.53458 12.2975 0.291375 9.97569C0.19425 9.79861 0.121406 9.61661 0.0728438 9.42969C0.0242813 9.24277 0 9.05093 0 8.85417C0 8.65741 0.0242813 8.46557 0.0728438 8.27865C0.121406 8.09172 0.19425 7.90972 0.291375 7.73264C1.53458 5.41088 3.22941 3.54167 5.37587 2.125C7.52234 0.708333 9.89705 0 12.5 0C15.103 0 17.4777 0.708333 19.6241 2.125C21.7706 3.54167 23.4654 5.41088 24.7086 7.73264C24.8057 7.90972 24.8786 8.09172 24.9272 8.27865C24.9757 8.46557 25 8.65741 25 8.85417C25 9.05093 24.9757 9.24277 24.9272 9.42969C24.8786 9.61661 24.8057 9.79861 24.7086 9.97569C23.4654 12.2975 21.7706 14.1667 19.6241 15.5833C17.4777 17 15.103 17.7083 12.5 17.7083C9.89705 17.7083 7.52234 17 5.37587 15.5833ZM18.546 13.5911C20.3817 12.4204 21.7852 10.8414 22.7564 8.85417C21.7852 6.8669 20.3817 5.28791 18.546 4.11719C16.7104 2.94647 14.695 2.36111 12.5 2.36111C10.305 2.36111 8.28963 2.94647 6.45396 4.11719C4.6183 5.28791 3.21484 6.8669 2.24359 8.85417C3.21484 10.8414 4.6183 12.4204 6.45396 13.5911C8.28963 14.7619 10.305 15.3472 12.5 15.3472C14.695 15.3472 16.7104 14.7619 18.546 13.5911Z" fill="#007EA7"/>
</svg>
