<svg width="50" height="50" viewBox="0 0 50 50" fill="none" xmlns="http://www.w3.org/2000/svg">
<g clip-path="url(#clip0_47_813)">
<path d="M16.4667 22.182L22.2 16.3782L18.4667 12.5758L17.4 13.6431C16.9111 14.1323 16.3 14.388 15.5667 14.4103C14.8333 14.4325 14.2 14.1768 13.6667 13.6431C13.1333 13.1094 12.8667 12.4757 12.8667 11.7419C12.8667 11.0081 13.1333 10.3743 13.6667 9.84066L14.6667 8.84001L11.6667 5.83807L5.86667 11.6418L16.4667 22.182ZM38.3333 44.1295L44.1333 38.3258L41.1333 35.3238L40.0667 36.3245C39.5333 36.8582 38.9111 37.125 38.2 37.125C37.4889 37.125 36.8667 36.8582 36.3333 36.3245C35.8 35.7908 35.5333 35.1682 35.5333 34.4566C35.5333 33.745 35.8 33.1224 36.3333 32.5887L37.3333 31.5214L33.5333 27.7856L27.8 33.5227L38.3333 44.1295ZM3.66667 48.9994C2.91111 48.9994 2.27778 48.7436 1.76667 48.2322C1.25556 47.7207 1 47.087 1 46.331V38.7927C1 38.437 1.06667 38.0923 1.2 37.7587C1.33333 37.4252 1.53333 37.125 1.8 36.8582L12.6667 25.9844L1.13333 14.4436C0.377778 13.6876 0 12.7537 0 11.6418C0 10.53 0.377778 9.59606 1.13333 8.84001L8.86667 1.10167C9.62222 0.345621 10.5556 -0.0212836 11.6667 0.000952998C12.7778 0.0231896 13.7111 0.412331 14.4667 1.16838L26.0667 12.7092L36.1333 2.56928C36.6667 2.0356 37.2667 1.63534 37.9333 1.36851C38.6 1.10167 39.2889 0.968246 40 0.968246C40.7111 0.968246 41.4 1.10167 42.0667 1.36851C42.7333 1.63534 43.3333 2.0356 43.8667 2.56928L47.4 6.17162C47.9333 6.70529 48.3333 7.30568 48.6 7.97278C48.8667 8.63988 49 9.32922 49 10.0408C49 10.7524 48.8667 11.4306 48.6 12.0754C48.3333 12.7203 47.9333 13.3096 47.4 13.8433L37.3333 23.9832L48.8667 35.524C49.6222 36.28 50 37.2139 50 38.3258C50 39.4376 49.6222 40.3715 48.8667 41.1276L41.1333 48.8659C40.3778 49.622 39.4444 50 38.3333 50C37.2222 50 36.2889 49.622 35.5333 48.8659L24 37.3251L13.1333 48.1988C12.8667 48.4657 12.5667 48.6658 12.2333 48.7992C11.9 48.9326 11.5556 48.9994 11.2 48.9994H3.66667ZM6.33333 43.6626H10.0667L36.2 17.579L32.4 13.7765L6.33333 39.9268V43.6626ZM34.3333 15.7111L32.4 13.7765L36.2 17.579L34.3333 15.7111Z" fill="#007EA7"/>
</g>
<defs>
<clipPath id="clip0_47_813">
<rect width="50" height="50" fill="white"/>
</clipPath>
</defs>
</svg>
