<svg width="25" height="25" viewBox="0 0 25 25" fill="none" xmlns="http://www.w3.org/2000/svg">
<path d="M6.60545 10.0368C5.60559 8.8848 5.10566 7.5 5.10566 5.88235C5.10566 4.26471 5.60559 2.8799 6.60545 1.72794C7.6053 0.57598 8.80726 0 10.2113 0C11.6154 0 12.8173 0.57598 13.8172 1.72794C14.817 2.8799 15.317 4.26471 15.317 5.88235C15.317 7.5 14.817 8.8848 13.8172 10.0368C12.8173 11.1887 11.6154 11.7647 10.2113 11.7647C8.80726 11.7647 7.6053 11.1887 6.60545 10.0368ZM0 20.5882V19.4118C0 18.6029 0.180825 17.8431 0.542476 17.1324C0.904127 16.4216 1.40406 15.8824 2.04226 15.5147C3.27613 14.8039 4.55255 14.2463 5.87151 13.8419C7.19047 13.4375 8.54134 13.2353 9.92412 13.2353C10.2858 13.2353 10.5889 13.3824 10.8336 13.6765C11.0782 13.9706 11.2005 14.326 11.2005 14.7426C11.2005 15.1593 11.0782 15.5086 10.8336 15.7904C10.5889 16.0723 10.2858 16.2132 9.92412 16.2132C8.7328 16.2132 7.57871 16.3848 6.46185 16.7279C5.34499 17.0711 4.25472 17.549 3.19104 18.1618C2.9783 18.2843 2.81875 18.4559 2.71238 18.6765C2.60601 18.8971 2.55283 19.1422 2.55283 19.4118V20.5882H9.92412C10.2858 20.5882 10.5889 20.7292 10.8336 21.011C11.0782 21.2929 11.2005 21.6422 11.2005 22.0588C11.2005 22.4755 11.0782 22.8248 10.8336 23.1066C10.5889 23.3885 10.2858 23.5294 9.92412 23.5294H2.55283C1.8508 23.5294 1.24982 23.2414 0.749894 22.6654C0.249965 22.0895 0 21.3971 0 20.5882ZM17.6783 23.8235L17.4869 22.7941C17.2316 22.6716 16.9923 22.5429 16.7689 22.4081C16.5455 22.2733 16.3168 22.1078 16.0828 21.9118L15.1574 22.2426C14.8809 22.3407 14.6096 22.3284 14.3437 22.2059C14.0778 22.0833 13.8704 21.8873 13.7215 21.6176L13.4662 21.1029C13.3173 20.8088 13.2641 20.4902 13.3066 20.1471C13.3492 19.8039 13.4874 19.5221 13.7215 19.3015L14.4235 18.6029C14.3809 18.2598 14.3597 17.9412 14.3597 17.6471C14.3597 17.3529 14.3809 17.0343 14.4235 16.6912L13.7215 15.9926C13.4874 15.7721 13.3492 15.4963 13.3066 15.1654C13.2641 14.8346 13.3173 14.5221 13.4662 14.2279L13.7534 13.6765C13.9023 13.4069 14.1044 13.2108 14.3597 13.0882C14.6149 12.9657 14.8809 12.9534 15.1574 13.0515L16.0828 13.3824C16.3168 13.1863 16.5455 13.0208 16.7689 12.886C16.9923 12.7512 17.2316 12.6226 17.4869 12.5L17.6783 11.4338C17.7422 11.0907 17.8858 10.815 18.1091 10.6066C18.3325 10.3983 18.5931 10.2941 18.8909 10.2941H19.4015C19.6993 10.2941 19.9599 10.4044 20.1833 10.625C20.4067 10.8456 20.5503 11.1275 20.6141 11.4706L20.8056 12.5C21.0608 12.6226 21.3002 12.7574 21.5235 12.9044C21.7469 13.0515 21.9756 13.2353 22.2096 13.4559L23.0712 13.125C23.369 13.0025 23.6562 13.0025 23.9328 13.125C24.2093 13.2476 24.4221 13.4559 24.571 13.75L24.8263 14.2647C24.9752 14.5588 25.0284 14.8775 24.9858 15.2206C24.9433 15.5637 24.805 15.8456 24.571 16.0662L23.869 16.7647C23.9115 17.0588 23.9328 17.3652 23.9328 17.6838C23.9328 18.0025 23.9115 18.3088 23.869 18.6029L24.571 19.3015C24.805 19.5221 24.9433 19.7978 24.9858 20.1287C25.0284 20.4596 24.9752 20.7721 24.8263 21.0662L24.5391 21.6176C24.3902 21.8873 24.1881 22.0833 23.9328 22.2059C23.6775 22.3284 23.4116 22.3407 23.135 22.2426L22.2096 21.9118C21.9756 22.1078 21.7469 22.2733 21.5235 22.4081C21.3002 22.5429 21.0608 22.6716 20.8056 22.7941L20.6141 23.8603C20.5503 24.2034 20.4067 24.4792 20.1833 24.6875C19.9599 24.8958 19.6993 25 19.4015 25H18.8909C18.5931 25 18.3325 24.8897 18.1091 24.6691C17.8858 24.4485 17.7422 24.1667 17.6783 23.8235ZM20.9492 19.7243C21.4491 19.1483 21.699 18.4559 21.699 17.6471C21.699 16.8382 21.4491 16.1458 20.9492 15.5699C20.4492 14.9939 19.8482 14.7059 19.1462 14.7059C18.4442 14.7059 17.8432 14.9939 17.3433 15.5699C16.8434 16.1458 16.5934 16.8382 16.5934 17.6471C16.5934 18.4559 16.8434 19.1483 17.3433 19.7243C17.8432 20.3002 18.4442 20.5882 19.1462 20.5882C19.8482 20.5882 20.4492 20.3002 20.9492 19.7243ZM12.0143 7.95956C12.5142 7.38358 12.7641 6.69118 12.7641 5.88235C12.7641 5.07353 12.5142 4.38113 12.0143 3.80515C11.5143 3.22917 10.9133 2.94118 10.2113 2.94118C9.50929 2.94118 8.90831 3.22917 8.40838 3.80515C7.90845 4.38113 7.65849 5.07353 7.65849 5.88235C7.65849 6.69118 7.90845 7.38358 8.40838 7.95956C8.90831 8.53554 9.50929 8.82353 10.2113 8.82353C10.9133 8.82353 11.5143 8.53554 12.0143 7.95956Z" fill="#007EA7"/>
</svg>
