<svg width="72" height="72" viewBox="0 0 72 72" fill="none" xmlns="http://www.w3.org/2000/svg">
<path d="M0 36C0 16.1178 16.1178 0 36 0C55.8823 0 72 16.1178 72 36C72 55.8823 55.8823 72 36 72C16.1178 72 0 55.8823 0 36Z" fill="#FEF3C7"/>
<path d="M47.25 29.25H42.75V25.875C42.75 24.0848 42.0388 22.3679 40.773 21.102C39.5071 19.8362 37.7902 19.125 36 19.125C34.2098 19.125 32.4929 19.8362 31.227 21.102C29.9612 22.3679 29.25 24.0848 29.25 25.875V29.25H24.75C24.1533 29.25 23.581 29.4871 23.159 29.909C22.7371 30.331 22.5 30.9033 22.5 31.5V47.25C22.5 47.8467 22.7371 48.419 23.159 48.841C23.581 49.2629 24.1533 49.5 24.75 49.5H47.25C47.8467 49.5 48.419 49.2629 48.841 48.841C49.2629 48.419 49.5 47.8467 49.5 47.25V31.5C49.5 30.9033 49.2629 30.331 48.841 29.909C48.419 29.4871 47.8467 29.25 47.25 29.25ZM36 41.0625C35.6662 41.0625 35.34 40.9635 35.0625 40.7781C34.785 40.5927 34.5687 40.3291 34.441 40.0208C34.3132 39.7124 34.2798 39.3731 34.3449 39.0458C34.41 38.7184 34.5708 38.4178 34.8068 38.1818C35.0428 37.9458 35.3434 37.785 35.6708 37.7199C35.9981 37.6548 36.3374 37.6882 36.6458 37.816C36.9541 37.9437 37.2177 38.16 37.4031 38.4375C37.5885 38.715 37.6875 39.0412 37.6875 39.375C37.6875 39.8226 37.5097 40.2518 37.1932 40.5682C36.8768 40.8847 36.4476 41.0625 36 41.0625ZM40.5 29.25H31.5V25.875C31.5 24.6815 31.9741 23.5369 32.818 22.693C33.6619 21.8491 34.8065 21.375 36 21.375C37.1935 21.375 38.3381 21.8491 39.182 22.693C40.0259 23.5369 40.5 24.6815 40.5 25.875V29.25Z" fill="#F59E0B"/>
</svg>
